<svg width="337.1595825195312px" height="121.78571166992187px" xmlns="http://www.w3.org/2000/svg" viewBox="81.42020874023439 14.107144165039067 337.1595825195312 121.78571166992187" style="background: rgba(0, 0, 0, 0); --darkreader-inline-bgimage: initial; --darkreader-inline-bgcolor: rgba(0, 0, 0, 0);" data-darkreader-inline-bgimage="" data-darkreader-inline-bgcolor="" preserveAspectRatio="xMidYMid"><defs><linearGradient id="editing-gradient-gradient" x1="0" x2="1" y1="0.5" y2="0.5" gradientUnits="objectBoundingBox"><stop offset="0" stop-color="#f0f" data-darkreader-inline-stopcolor="" style="--darkreader-inline-stopcolor: #cc00cc;"></stop><stop offset="1" stop-color="#0ff" data-darkreader-inline-stopcolor="" style="--darkreader-inline-stopcolor: #00cccc;"></stop></linearGradient></defs><g><g transform="translate(133.099991440773, 97.39999961853027)"><path d="M34.50-13.25L34.50-13.25L34.50-13.25Q36.16-12.03 36.16-9.44L36.16-9.44L36.16-9.44Q36.16-6.85 35.04-5.02L35.04-5.02L35.04-5.02Q33.92-3.20 31.74-1.79L31.74-1.79L31.74-1.79Q27.07 1.22 18.91 1.22L18.91 1.22L18.91 1.22Q10.75 1.22 6.30-3.04L6.30-3.04L6.30-3.04Q1.86-7.30 1.86-14.85L1.86-14.85L1.86-14.85Q1.86-25.54 7.42-33.66L7.42-33.66L7.42-33.66Q11.65-39.68 19.20-42.24L19.20-42.24L19.20-42.24Q23.10-43.52 26.94-43.52L26.94-43.52L26.94-43.52Q30.78-43.52 33.15-43.01L33.15-43.01L33.15-43.01Q35.52-42.50 37.31-41.47L37.31-41.47L37.31-41.47Q41.22-39.23 41.22-35.65L41.22-35.65L41.22-35.65Q41.22-32.38 38.14-29.95L38.14-29.95L38.14-29.95Q35.33-27.78 33.02-27.78L33.02-27.78L33.02-27.78Q30.72-27.78 29.76-28.10L29.76-28.10L29.76-28.10Q30.02-30.40 30.02-31.90L30.02-31.90L30.02-31.90Q30.02-33.41 29.95-34.50L29.95-34.50L29.95-34.50Q29.89-35.58 29.57-36.61L29.57-36.61L29.57-36.61Q28.93-38.98 26.98-38.98L26.98-38.98L26.98-38.98Q25.02-38.98 23.07-37.15L23.07-37.15L23.07-37.15Q21.12-35.33 19.46-32.26L19.46-32.26L19.46-32.26Q15.68-25.28 15.68-17.02L15.68-17.02L15.68-17.02Q15.68-13.06 17.92-10.78L17.92-10.78L17.92-10.78Q20.16-8.51 24.96-8.51L24.96-8.51L24.96-8.51Q28.54-8.51 31.94-10.88L31.94-10.88L31.94-10.88Q33.41-11.90 34.50-13.25ZM55.42 1.28L55.42 1.28L55.42 1.28Q41.34 1.28 41.34-11.97L41.34-11.97L41.34-11.97Q41.34-21.38 46.53-27.46L46.53-27.46L46.53-27.46Q52.03-33.92 61.57-33.92L61.57-33.92L61.57-33.92Q68.48-33.92 72-30.72L72-30.72L72-30.72Q75.52-27.52 75.52-20.80L75.52-20.80L75.52-20.80Q75.52-10.56 70.02-4.61L70.02-4.61L70.02-4.61Q64.64 1.28 55.42 1.28ZM57.09-26.56L57.09-26.56L57.09-26.56Q56.32-24.83 55.71-22.24L55.71-22.24L55.71-22.24Q55.10-19.65 54.34-15.55L54.34-15.55L54.34-15.55Q53.57-11.46 53.57-6.40L53.57-6.40L53.57-6.40Q53.57-4.74 54.11-3.65L54.11-3.65L54.11-3.65Q54.66-2.56 56.13-2.56L56.13-2.56L56.13-2.56Q57.60-2.56 58.53-3.26L58.53-3.26L58.53-3.26Q59.46-3.97 60.16-5.63L60.16-5.63L60.16-5.63Q61.44-8.58 62.46-14.05L62.46-14.05L62.46-14.05Q63.49-19.52 63.58-21.89L63.58-21.89L63.58-21.89Q63.68-24.26 63.68-26.02L63.68-26.02L63.68-26.02Q63.68-27.78 63.17-28.93L63.17-28.93L63.17-28.93Q62.66-30.08 61.22-30.08L61.22-30.08L61.22-30.08Q59.78-30.08 58.82-29.18L58.82-29.18L58.82-29.18Q57.86-28.29 57.09-26.56ZM80.32-6.40L80.32-6.40L80.32-6.40Q80.32-8.13 81.22-12.48L81.22-12.48L84.61-29.76L80.83-29.76L81.09-31.68L81.09-31.68Q88.77-33.98 96.19-39.62L96.19-39.62L99.26-39.62L97.73-32.64L102.72-32.64L102.14-29.76L97.22-29.76L93.95-12.48L93.95-12.48Q93.12-8.51 93.12-7.17L93.12-7.17L93.12-7.17Q93.12-4.10 95.81-3.46L95.81-3.46L95.81-3.46Q95.17-1.28 92.86 0L92.86 0L92.86 0Q90.56 1.28 87.30 1.28L87.30 1.28L87.30 1.28Q84.03 1.28 82.18-0.77L82.18-0.77L82.18-0.77Q80.32-2.82 80.32-6.40ZM103.42-6.40L103.42-6.40L103.42-6.40Q103.42-8.13 104.32-12.48L104.32-12.48L107.71-29.76L103.94-29.76L104.19-31.68L104.19-31.68Q111.87-33.98 119.30-39.62L119.30-39.62L122.37-39.62L120.83-32.64L125.82-32.64L125.25-29.76L120.32-29.76L117.06-12.48L117.06-12.48Q116.22-8.51 116.22-7.17L116.22-7.17L116.22-7.17Q116.22-4.10 118.91-3.46L118.91-3.46L118.91-3.46Q118.27-1.28 115.97 0L115.97 0L115.97 0Q113.66 1.28 110.40 1.28L110.40 1.28L110.40 1.28Q107.14 1.28 105.28-0.77L105.28-0.77L105.28-0.77Q103.42-2.82 103.42-6.40ZM139.20 1.28L139.20 1.28L139.20 1.28Q125.12 1.28 125.12-11.97L125.12-11.97L125.12-11.97Q125.12-21.38 130.30-27.46L130.30-27.46L130.30-27.46Q135.81-33.92 145.34-33.92L145.34-33.92L145.34-33.92Q152.26-33.92 155.78-30.72L155.78-30.72L155.78-30.72Q159.30-27.52 159.30-20.80L159.30-20.80L159.30-20.80Q159.30-10.56 153.79-4.61L153.79-4.61L153.79-4.61Q148.42 1.28 139.20 1.28ZM140.86-26.56L140.86-26.56L140.86-26.56Q140.10-24.83 139.49-22.24L139.49-22.24L139.49-22.24Q138.88-19.65 138.11-15.55L138.11-15.55L138.11-15.55Q137.34-11.46 137.34-6.40L137.34-6.40L137.34-6.40Q137.34-4.74 137.89-3.65L137.89-3.65L137.89-3.65Q138.43-2.56 139.90-2.56L139.90-2.56L139.90-2.56Q141.38-2.56 142.30-3.26L142.30-3.26L142.30-3.26Q143.23-3.97 143.94-5.63L143.94-5.63L143.94-5.63Q145.22-8.58 146.24-14.05L146.24-14.05L146.24-14.05Q147.26-19.52 147.36-21.89L147.36-21.89L147.36-21.89Q147.46-24.26 147.46-26.02L147.46-26.02L147.46-26.02Q147.46-27.78 146.94-28.93L146.94-28.93L146.94-28.93Q146.43-30.08 144.99-30.08L144.99-30.08L144.99-30.08Q143.55-30.08 142.59-29.18L142.59-29.18L142.59-29.18Q141.63-28.29 140.86-26.56ZM190.14 1.28L190.14 1.28L190.14 1.28Q182.40 1.28 182.40-4.74L182.40-4.74L182.40-4.74Q182.46-6.40 182.98-9.22L182.98-9.22L184.13-15.10L184.13-15.10Q185.86-23.42 185.86-25.28L185.86-25.28L185.86-25.28Q185.86-28.99 183.68-28.99L183.68-28.99L183.68-28.99Q180.03-28.99 178.11-19.46L178.11-19.46L174.34 0L161.47 1.28L168.13-32.70L178.62-33.92L177.60-27.65L177.60-27.65Q180.61-33.92 189.82-33.92L189.82-33.92L189.82-33.92Q194.30-33.92 196.19-32.03L196.19-32.03L196.19-32.03Q198.08-30.14 198.08-25.92L198.08-25.92L198.08-25.92Q198.08-21.95 196.03-12.67L196.03-12.67L196.03-12.67Q195.07-8.51 195.07-6.94L195.07-6.94L195.07-6.94Q195.07-5.38 195.94-4.48L195.94-4.48L195.94-4.48Q196.80-3.58 198.08-3.46L198.08-3.46L198.08-3.46Q197.44-1.28 195.23 0L195.23 0L195.23 0Q193.02 1.28 190.14 1.28ZM222.34-22.46L222.34-22.46L222.34-22.46Q223.23-24.83 223.23-26.88L223.23-26.88L223.23-26.88Q223.23-30.66 220.16-30.66L220.16-30.66L220.16-30.66Q218.56-30.66 217.25-29.22L217.25-29.22L217.25-29.22Q215.94-27.78 215.94-25.98L215.94-25.98L215.94-25.98Q215.94-24.70 216.96-23.68L216.96-23.68L216.96-23.68Q218.43-22.27 222.21-19.97L222.21-19.97L222.21-19.97Q225.98-17.66 227.42-15.78L227.42-15.78L227.42-15.78Q228.86-13.89 228.86-11.30L228.86-11.30L228.86-11.30Q228.86-8.70 227.62-6.34L227.62-6.34L227.62-6.34Q226.37-3.97 224.13-2.30L224.13-2.30L224.13-2.30Q219.33 1.28 211.65 1.28L211.65 1.28L211.65 1.28Q207.49 1.28 204.29-0.90L204.29-0.90L204.29-0.90Q201.09-3.01 201.09-5.50L201.09-5.50L201.09-5.50Q201.09-8 202.91-9.47L202.91-9.47L202.91-9.47Q204.74-10.94 207.42-10.94L207.42-10.94L207.42-10.94Q210.11-10.94 211.78-9.92L211.78-9.92L211.78-9.92Q210.94-7.81 210.94-6.40L210.94-6.40L210.94-6.40Q210.94-2.18 214.53-2.18L214.53-2.18L214.53-2.18Q216.06-2.18 217.09-3.14L217.09-3.14L217.09-3.14Q218.11-4.10 218.11-5.76L218.11-5.76L218.11-5.76Q218.11-9.02 212.61-12.48L212.61-12.48L212.61-12.48Q208.13-15.42 207.10-16.58L207.10-16.58L207.10-16.58Q205.38-18.62 205.38-21.18L205.38-21.18L205.38-21.18Q205.38-23.74 206.59-26.18L206.59-26.18L206.59-26.18Q207.81-28.61 210.05-30.34L210.05-30.34L210.05-30.34Q214.72-33.92 222.85-33.92L222.85-33.92L222.85-33.92Q227.01-33.92 229.47-32.26L229.47-32.26L229.47-32.26Q231.94-30.59 231.94-27.78L231.94-27.78L231.94-27.78Q231.94-24.96 230.24-23.36L230.24-23.36L230.24-23.36Q228.54-21.76 225.47-21.76L225.47-21.76L225.47-21.76Q223.36-21.76 222.34-22.46Z" fill="url(#editing-gradient-gradient)"></path></g></g><style>text {
  font-size: 64px;
  font-family: Arial Black;
  dominant-baseline: central;
  text-anchor: middle;
}</style><style class="darkreader darkreader--sync" media="screen"></style></svg>